<?xml version="1.0" standalone="no"?>
<!DOCTYPE svg PUBLIC "-//W3C//DTD SVG 20010904//EN"
 "http://www.w3.org/TR/2001/REC-SVG-20010904/DTD/svg10.dtd">
<svg version="1.0" xmlns="http://www.w3.org/2000/svg"
 width="200.000000pt" height="84.000000pt" viewBox="0 0 200.000000 84.000000"
 preserveAspectRatio="xMidYMid meet">

<g transform="translate(0.000000,84.000000) scale(0.100000,-0.100000)"
fill="#000000" stroke="none">
<path d="M333 517 c-31 -29 -37 -41 -41 -88 -4 -49 -1 -59 24 -88 15 -19 43
-40 61 -47 33 -14 177 -19 207 -8 22 8 20 41 -3 53 -10 6 -21 19 -23 29 -4 14
1 18 25 20 42 3 48 12 9 12 -26 0 -32 4 -32 21 0 36 -32 90 -64 110 -19 12
-50 19 -79 19 -40 0 -53 -5 -84 -33z m166 -2 c40 -34 56 -84 41 -129 -6 -19
-18 -40 -26 -46 -12 -10 -14 -8 -14 13 0 17 -7 28 -20 32 -27 8 -40 -1 -40
-30 0 -25 20 -37 47 -29 15 5 15 3 -1 -10 -11 -9 -26 -16 -33 -16 -20 0 -90
37 -99 52 -5 7 4 5 19 -5 24 -16 28 -16 33 -2 9 24 -16 47 -43 40 -16 -4 -23
-1 -23 9 0 7 9 16 20 19 26 7 26 42 0 60 l-20 14 21 27 c29 36 95 37 138 1z
m-157 -71 c-3 -18 -7 -22 -13 -13 -4 7 -3 19 3 26 15 18 16 17 10 -13z m143
-103 c-3 -6 -11 -11 -17 -11 -6 0 -6 6 2 15 14 17 26 13 15 -4z m91 -11 c9 0
14 -7 12 -17 -2 -14 -15 -19 -55 -21 l-52 -3 32 33 c23 24 34 30 40 21 4 -7
15 -13 23 -13z"/>
<path d="M397 523 c-14 -13 -7 -43 12 -53 23 -12 54 12 45 35 -4 10 -12 12
-32 4 -25 -9 -26 -8 -8 6 15 12 16 15 5 15 -9 0 -19 -3 -22 -7z"/>
<path d="M476 465 c-12 -12 -13 -21 -6 -36 13 -23 33 -25 51 -3 9 11 10 20 3
32 -15 23 -29 25 -48 7z m44 -23 c0 -15 -2 -15 -10 -2 -13 20 -13 33 0 25 6
-3 10 -14 10 -23z"/>
<path d="M405 430 c-8 -14 3 -30 21 -30 8 0 14 9 14 20 0 21 -24 28 -35 10z
m25 -10 c0 -5 -4 -10 -10 -10 -5 0 -10 5 -10 10 0 6 5 10 10 10 6 0 10 -4 10
-10z"/>
<path d="M772 520 c-57 -35 -77 -111 -46 -176 31 -66 118 -85 173 -38 87 73
38 234 -71 234 -13 0 -38 -9 -56 -20z m117 -34 c45 -47 34 -148 -18 -176 -60
-31 -131 17 -131 90 0 43 21 95 42 103 35 14 85 6 107 -17z"/>
<path d="M1309 519 c-11 -11 -19 -30 -19 -44 0 -16 -6 -25 -15 -25 -8 0 -15
-4 -15 -9 0 -5 7 -11 15 -15 17 -6 22 -111 5 -121 -21 -13 -9 -25 25 -25 19 0
35 5 35 10 0 6 -4 10 -10 10 -6 0 -10 28 -10 65 0 58 2 65 20 65 11 0 20 5 20
10 0 6 -9 10 -20 10 -16 0 -20 7 -20 30 0 24 4 30 23 30 12 0 32 3 45 6 22 6
22 6 22 -105 0 -67 -4 -111 -10 -111 -5 0 -10 -4 -10 -10 0 -5 16 -10 35 -10
34 0 46 12 25 25 -6 4 -10 55 -10 120 l0 113 -56 0 c-42 -1 -62 -6 -75 -19z"/>
<path d="M1525 530 c-7 -12 2 -30 16 -30 5 0 9 9 9 20 0 21 -15 27 -25 10z"/>
<path d="M1168 494 c-5 -4 -8 -16 -8 -26 0 -10 -7 -18 -15 -18 -8 0 -15 -4
-15 -9 0 -5 7 -11 15 -15 11 -4 15 -21 15 -64 0 -63 14 -87 46 -80 27 5 28 26
2 30 -20 3 -23 9 -26 56 -3 47 -1 54 17 59 26 7 27 23 2 23 -14 0 -21 8 -23
26 -2 14 -6 22 -10 18z"/>
<path d="M980 440 c0 -5 5 -10 10 -10 6 0 10 -28 10 -65 0 -37 -4 -65 -10 -65
-5 0 -10 -4 -10 -10 0 -5 18 -10 40 -10 40 0 53 13 25 24 -10 4 -15 19 -15 48
0 57 10 71 43 62 23 -5 27 -3 27 15 0 23 -20 27 -51 11 -13 -7 -19 -7 -19 0 0
5 -11 10 -25 10 -14 0 -25 -4 -25 -10z"/>
<path d="M1500 440 c0 -5 5 -10 10 -10 6 0 10 -28 10 -65 0 -37 -4 -65 -10
-65 -5 0 -10 -4 -10 -10 0 -5 16 -10 35 -10 34 0 46 12 25 25 -5 3 -10 37 -10
76 0 67 -1 69 -25 69 -14 0 -25 -4 -25 -10z"/>
<path d="M1600 442 c0 -5 14 -21 30 -37 17 -16 30 -32 30 -37 0 -4 -13 -23
-30 -41 -36 -42 -37 -47 -5 -47 17 0 25 5 25 18 0 10 6 27 14 38 15 19 15 19
30 -1 8 -11 16 -28 16 -37 0 -12 8 -18 25 -18 33 0 32 7 -10 50 l-35 36 35 34
c41 42 43 50 10 50 -17 0 -25 -5 -25 -18 0 -46 -48 -56 -56 -12 -5 23 -12 30
-30 30 -13 0 -24 -4 -24 -8z"/>
</g>
</svg>
